<svg xmlns:dc="http://purl.org/dc/elements/1.1/" xmlns:cc="http://creativecommons.org/ns#" xmlns:rdf="http://www.w3.org/1999/02/22-rdf-syntax-ns#" xmlns:svg="http://www.w3.org/2000/svg" xmlns="http://www.w3.org/2000/svg" viewBox="0 0 380 380" height="380" width="380" xml:space="preserve" id="svg2" version="1.1" xmlns:xlink="http://www.w3.org/1999/xlink">
 <metadata id="metadata8">
  <rdf:RDF>
   <cc:Work rdf:about="">
    <dc:format>
     image/svg+xml
    </dc:format>
    <dc:type rdf:resource="http://purl.org/dc/dcmitype/StillImage">
    </dc:type>
   </cc:Work>
  </rdf:RDF>
 </metadata>
 <defs id="defs6">
 </defs>
 <g transform="matrix(1.3333333,0,0,-1.3333333,0,380)" id="g10">
  <g transform="scale(0.1)" id="g12">
   <path id="path14" style="fill:#004580;fill-opacity:1;fill-rule:nonzero;stroke:none" d="M 2360.16,0 H 489.844 C 222.656,0 0,222.66 0,489.84 V 2360.16 C 0,2627.34 222.656,2850 489.844,2850 H 2360.16 C 2627.34,2850 2850,2627.34 2850,2360.16 V 489.84 C 2850,222.66 2627.34,0 2360.16,0">
   </path>
   <path id="path16" style="fill:#ffffff;fill-opacity:1;fill-rule:nonzero;stroke:none" d="m 810.469,552.191 c -8.906,-8.91 -17.813,-17.82 -35.625,-17.82 h -285 c -8.906,0 -8.906,0 -17.813,8.91 0,8.91 -8.906,17.809 -8.906,26.719 l 926.255,1736.72 c 8.9,8.91 17.81,8.91 35.62,8.91 17.81,0 26.72,0 35.63,-8.91 L 2386.88,570 c 0,-8.91 0,-17.809 -8.91,-26.719 0,-8.91 -8.91,-8.91 -17.81,-8.91 h -285 c -17.82,0 -26.72,8.91 -35.63,26.719 l -578.91,1113.28 c -8.9,8.91 -17.81,17.82 -35.62,17.82 -17.81,0 -26.72,-8.91 -35.62,-26.72 L 810.469,552.191">
   </path>
  </g>
 </g>
</svg>